<?xml version="1.0" encoding="UTF-8"?>
<!DOCTYPE svg PUBLIC "-//W3C//DTD SVG 1.1//EN" "http://www.w3.org/Graphics/SVG/1.1/DTD/svg11.dtd">
<!-- Creator: CorelDRAW -->
<svg xmlns="http://www.w3.org/2000/svg" xml:space="preserve" width="4.6004mm" height="4.6004mm" version="1.1" style="shape-rendering:geometricPrecision; text-rendering:geometricPrecision; image-rendering:optimizeQuality; fill-rule:evenodd; clip-rule:evenodd"
viewBox="0 0 17.29 17.29"
 xmlns:xlink="http://www.w3.org/1999/xlink"
 xmlns:xodm="http://www.corel.com/coreldraw/odm/2003">
 <defs>
  <style type="text/css">
   <![CDATA[
    .fil0 {fill:#694800}
    .fil1 {fill:#DBAF51}
   ]]>
  </style>
 </defs>
 <g id="Camada_x0020_1">
  <metadata id="CorelCorpID_0Corel-Layer"/>
  <g id="_2122121165008">
   <rect class="fil0" x="-0" y="-0" width="17.29" height="17.29" rx="1.35" ry="1.64"/>
   <g>
    <path class="fil1" d="M10 7.42l0 3.74c0,0.59 0.29,0.45 0.83,0.45 0.77,0 0.79,0.14 0.79,-0.84l0 -3.35c-0,-0.53 -0.31,-0.41 -0.79,-0.41 -0.48,0 -0.83,-0.13 -0.83,0.41z"/>
    <path class="fil1" d="M7.97 11.55c0.16,0.1 1.18,0.1 1.35,0 0.23,-0.16 0.14,-0.63 0.14,-0.93 -0,-2.68 0.24,-2.53 -0.81,-2.53 -0.36,0 -0.76,-0.1 -0.81,0.26l-0 2.22c0,0.3 -0.1,0.82 0.14,0.98z"/>
    <path class="fil1" d="M10.17 5.62c-0.14,0.22 -0.92,0.96 -1.2,1.24 -0.21,0.21 -0.3,0.15 -0.66,0.15 -0.87,-0 -0.78,-0.13 -1.21,0.41 -0.24,0.31 -0.46,0.61 -0.74,0.91 -0.34,0.06 -1.41,-0.04 -1.62,0.04 -0.22,0.09 -0.21,0.43 0.04,0.5 0.13,0.04 0.68,0.02 0.85,0.02 1.09,-0 0.81,0.21 1.66,-0.85 0.13,-0.17 0.3,-0.34 0.37,-0.5 1.39,0 1.22,0.14 1.81,-0.43 0.32,-0.31 0.8,-0.86 1.12,-1.1 0.6,0.5 0.6,0.15 0.87,-0.65 0.39,-1.17 -0.17,-0.78 -1.15,-0.47 -0.21,0.07 -0.34,0.08 -0.37,0.28 -0.03,0.24 0.12,0.27 0.23,0.43z"/>
    <path class="fil1" d="M4.66 12.62c0.37,0.15 3.32,0.07 3.99,0.07 0.67,0 3.61,0.09 3.99,-0.07 0.17,-0.42 -0.04,-0.48 -0.44,-0.48l-7.09 0c-0.4,0 -0.61,0.05 -0.44,0.48z"/>
    <path class="fil1" d="M5.67 9.99c-0,1.84 -0.24,1.61 1.18,1.61 0.61,0 0.45,-0.27 0.45,-1.66 0,-0.56 -0.05,-0.5 -0.83,-0.5 -0.65,-0 -0.79,-0.13 -0.79,0.55z"/>
   </g>
  </g>
 </g>
</svg>
