<?xml version="1.0" encoding="UTF-8"?>
<!DOCTYPE svg PUBLIC "-//W3C//DTD SVG 1.1//EN" "http://www.w3.org/Graphics/SVG/1.1/DTD/svg11.dtd">
<!-- Creator: CorelDRAW -->
<svg xmlns="http://www.w3.org/2000/svg" xml:space="preserve" width="21.9626mm" height="12.8798mm" version="1.1" style="shape-rendering:geometricPrecision; text-rendering:geometricPrecision; image-rendering:optimizeQuality; fill-rule:evenodd; clip-rule:evenodd"
viewBox="0 0 296.72 174.01"
 xmlns:xlink="http://www.w3.org/1999/xlink"
 xmlns:xodm="http://www.corel.com/coreldraw/odm/2003">
 <defs>
  <style type="text/css">
   <![CDATA[
    .fil0 {fill:none}
    .fil2 {fill:#3E454F}
    .fil3 {fill:#39404A;fill-rule:nonzero}
    .fil1 {fill:#3E454F;fill-rule:nonzero}
   ]]>
  </style>
    <mask id="id0">
  <linearGradient id="id1" gradientUnits="userSpaceOnUse" x1="16.96" y1="86.77" x2="293.24" y2="86.76">
   <stop offset="0" style="stop-opacity:0; stop-color:white"/>
   <stop offset="0.478431" style="stop-opacity:1; stop-color:white"/>
   <stop offset="1" style="stop-opacity:0; stop-color:white"/>
  </linearGradient>
     <rect style="fill:url(#id1)" x="-1.35" y="84.14" width="299.43" height="5.73"/>
    </mask>
 </defs>
 <g id="Camada_x0020_1">
  <metadata id="CorelCorpID_0Corel-Layer"/>
  <g id="_1402218196416">
   <polygon class="fil0" points="-0,0 296.72,0 296.72,174.01 -0,174.01 "/>
   <path class="fil1" d="M89.28 110.23l-1.66 -4.46 -6.47 0 -1.62 4.46 -1.56 0 5.75 -15.09 1.41 0 5.71 15.09 -1.56 0zm-4.6 -12.45c-0.05,-0.13 -0.1,-0.29 -0.16,-0.46 -0.05,-0.17 -0.1,-0.37 -0.13,-0.6l-0.04 0c-0.04,0.23 -0.09,0.43 -0.14,0.6 -0.05,0.18 -0.1,0.33 -0.15,0.46l-2.45 6.71 5.54 0 -2.47 -6.71zm18.92 6.39c0,4.21 -1.85,6.32 -5.57,6.32 -3.53,0 -5.3,-2.03 -5.3,-6.09l0 -9.26 1.4 0 0 9.13c0,1.65 0.33,2.89 1,3.71 0.66,0.82 1.7,1.23 3.1,1.23 2.64,0 3.96,-1.6 3.96,-4.8l0 -9.28 1.4 0 0 9.03zm8.03 -7.73l0 13.8 -1.4 0 0 -13.8 -4.35 0 0 -1.29 10.11 0 0 1.29 -4.36 0zm12.02 14.05c-1.09,0 -2.07,-0.2 -2.94,-0.6 -0.87,-0.4 -1.61,-0.94 -2.22,-1.62 -0.61,-0.69 -1.07,-1.5 -1.4,-2.43 -0.33,-0.93 -0.49,-1.93 -0.49,-3 0,-1.18 0.16,-2.26 0.49,-3.23 0.33,-0.98 0.8,-1.82 1.43,-2.51 0.63,-0.7 1.39,-1.24 2.3,-1.63 0.91,-0.39 1.94,-0.59 3.1,-0.59 1.07,0 2.03,0.19 2.88,0.57 0.85,0.38 1.57,0.91 2.17,1.59 0.6,0.68 1.06,1.48 1.38,2.4 0.32,0.93 0.48,1.93 0.48,3.02 0,1.14 -0.16,2.21 -0.47,3.18 -0.31,0.98 -0.77,1.83 -1.38,2.54 -0.61,0.72 -1.36,1.28 -2.25,1.68 -0.89,0.41 -1.91,0.61 -3.07,0.61zm0.11 -14.34c-0.91,0 -1.72,0.17 -2.43,0.52 -0.71,0.35 -1.3,0.82 -1.79,1.41 -0.49,0.59 -0.85,1.29 -1.1,2.08 -0.25,0.79 -0.38,1.64 -0.39,2.54 -0.01,0.86 0.1,1.68 0.33,2.46 0.23,0.78 0.57,1.48 1.03,2.08 0.46,0.6 1.04,1.08 1.74,1.44 0.7,0.36 1.52,0.54 2.46,0.54 0.94,0 1.77,-0.16 2.48,-0.49 0.71,-0.33 1.31,-0.78 1.79,-1.36 0.47,-0.58 0.84,-1.27 1.08,-2.07 0.24,-0.8 0.36,-1.67 0.36,-2.62 0,-0.88 -0.11,-1.72 -0.32,-2.52 -0.22,-0.79 -0.55,-1.48 -1,-2.08 -0.45,-0.59 -1.03,-1.06 -1.73,-1.41 -0.7,-0.35 -1.54,-0.52 -2.53,-0.52zm9.49 11.86c0.25,0.19 0.53,0.36 0.84,0.51 0.3,0.15 0.61,0.28 0.93,0.38 0.32,0.1 0.64,0.18 0.96,0.23 0.32,0.05 0.63,0.08 0.93,0.08 1.14,0 1.99,-0.22 2.56,-0.66 0.57,-0.44 0.85,-1.08 0.85,-1.9 0,-0.4 -0.07,-0.75 -0.2,-1.05 -0.13,-0.3 -0.34,-0.57 -0.62,-0.84 -0.28,-0.26 -0.64,-0.52 -1.06,-0.77 -0.43,-0.26 -0.93,-0.55 -1.52,-0.87 -0.64,-0.35 -1.2,-0.68 -1.66,-1 -0.46,-0.31 -0.83,-0.63 -1.12,-0.96 -0.29,-0.33 -0.51,-0.68 -0.64,-1.06 -0.14,-0.38 -0.21,-0.81 -0.21,-1.3 0,-0.61 0.13,-1.16 0.39,-1.64 0.26,-0.49 0.61,-0.9 1.05,-1.24 0.44,-0.34 0.96,-0.6 1.55,-0.79 0.59,-0.18 1.22,-0.27 1.9,-0.27 1.18,0 2.18,0.16 2.98,0.5l0 1.54c-0.89,-0.51 -1.93,-0.77 -3.13,-0.77 -0.45,0 -0.87,0.05 -1.27,0.16 -0.4,0.11 -0.74,0.27 -1.04,0.48 -0.3,0.21 -0.54,0.47 -0.7,0.79 -0.17,0.31 -0.26,0.68 -0.26,1.09 0,0.4 0.06,0.73 0.17,1.02 0.12,0.28 0.3,0.55 0.56,0.81 0.26,0.26 0.59,0.51 1.01,0.75 0.42,0.25 0.93,0.54 1.53,0.86 0.63,0.34 1.18,0.66 1.65,0.98 0.47,0.32 0.86,0.65 1.17,1 0.31,0.35 0.55,0.72 0.7,1.11 0.15,0.39 0.23,0.82 0.23,1.3 0,0.66 -0.12,1.24 -0.37,1.74 -0.25,0.5 -0.59,0.92 -1.03,1.25 -0.44,0.33 -0.97,0.58 -1.58,0.75 -0.61,0.17 -1.28,0.25 -2.01,0.25 -0.24,0 -0.52,-0.02 -0.85,-0.06 -0.33,-0.04 -0.66,-0.1 -1,-0.17 -0.34,-0.08 -0.66,-0.16 -0.96,-0.27 -0.31,-0.1 -0.55,-0.21 -0.74,-0.33l0 -1.65zm16.22 -3.44l0 5.65 -1.4 0 0 -5.62 -4.74 -9.47 1.59 0 3.45 7.05c0.04,0.09 0.1,0.21 0.17,0.38 0.07,0.17 0.15,0.38 0.25,0.64l0.03 0c0.04,-0.13 0.1,-0.27 0.18,-0.44 0.07,-0.16 0.17,-0.36 0.28,-0.57l3.61 -7.06 1.49 0 -4.92 9.44zm17.57 5.65l-8.38 -12.11c-0.11,-0.16 -0.21,-0.31 -0.31,-0.47 -0.1,-0.16 -0.18,-0.32 -0.25,-0.47l-0.05 0c0.01,0.13 0.03,0.3 0.04,0.53 0.01,0.22 0.01,0.5 0.01,0.84l0 11.69 -1.4 0 0 -15.09 1.55 0 8.24 11.96c0.13,0.19 0.24,0.37 0.34,0.53 0.1,0.16 0.19,0.32 0.28,0.46l0.05 0c-0.03,-0.23 -0.05,-0.49 -0.06,-0.78 -0.01,-0.29 -0.02,-0.61 -0.02,-0.96l0 -11.22 1.42 0 0 15.09 -1.45 0zm15.52 -0.56c-1.17,0.55 -2.5,0.82 -4,0.82 -1.07,0 -2.04,-0.19 -2.91,-0.56 -0.87,-0.37 -1.61,-0.89 -2.23,-1.56 -0.62,-0.66 -1.09,-1.46 -1.43,-2.38 -0.34,-0.92 -0.5,-1.92 -0.5,-3.01 0,-1.15 0.18,-2.21 0.53,-3.19 0.36,-0.99 0.86,-1.84 1.52,-2.57 0.66,-0.73 1.46,-1.3 2.4,-1.71 0.94,-0.41 1.99,-0.62 3.15,-0.62 1.29,0 2.44,0.2 3.45,0.59l0 1.49c-1.08,-0.54 -2.24,-0.81 -3.47,-0.81 -0.98,0 -1.85,0.17 -2.6,0.51 -0.76,0.33 -1.4,0.81 -1.92,1.41 -0.52,0.6 -0.92,1.31 -1.19,2.13 -0.27,0.82 -0.41,1.71 -0.41,2.68 0,0.87 0.12,1.69 0.37,2.46 0.24,0.77 0.61,1.44 1.09,2.02 0.48,0.58 1.08,1.03 1.8,1.37 0.71,0.34 1.55,0.51 2.5,0.51 1.46,0 2.73,-0.31 3.84,-0.92l0 1.37zm8.54 -1.65c0.25,0.19 0.53,0.36 0.84,0.51 0.3,0.15 0.61,0.28 0.93,0.38 0.32,0.1 0.64,0.18 0.96,0.23 0.32,0.05 0.63,0.08 0.93,0.08 1.14,0 1.99,-0.22 2.56,-0.66 0.57,-0.44 0.85,-1.08 0.85,-1.9 0,-0.4 -0.07,-0.75 -0.2,-1.05 -0.13,-0.3 -0.34,-0.57 -0.62,-0.84 -0.28,-0.26 -0.64,-0.52 -1.06,-0.77 -0.43,-0.26 -0.93,-0.55 -1.52,-0.87 -0.64,-0.35 -1.2,-0.68 -1.66,-1 -0.46,-0.31 -0.83,-0.63 -1.12,-0.96 -0.29,-0.33 -0.51,-0.68 -0.64,-1.06 -0.14,-0.38 -0.21,-0.81 -0.21,-1.3 0,-0.61 0.13,-1.16 0.39,-1.64 0.26,-0.49 0.61,-0.9 1.05,-1.24 0.44,-0.34 0.96,-0.6 1.55,-0.79 0.59,-0.18 1.22,-0.27 1.9,-0.27 1.18,0 2.18,0.16 2.98,0.5l0 1.54c-0.89,-0.51 -1.93,-0.77 -3.13,-0.77 -0.45,0 -0.87,0.05 -1.27,0.16 -0.4,0.11 -0.74,0.27 -1.04,0.48 -0.3,0.21 -0.54,0.47 -0.7,0.79 -0.17,0.31 -0.26,0.68 -0.26,1.09 0,0.4 0.06,0.73 0.17,1.02 0.12,0.28 0.3,0.55 0.56,0.81 0.26,0.26 0.59,0.51 1.01,0.75 0.42,0.25 0.93,0.54 1.53,0.86 0.63,0.34 1.18,0.66 1.65,0.98 0.47,0.32 0.86,0.65 1.17,1 0.31,0.35 0.55,0.72 0.7,1.11 0.15,0.39 0.23,0.82 0.23,1.3 0,0.66 -0.12,1.24 -0.37,1.74 -0.25,0.5 -0.59,0.92 -1.03,1.25 -0.44,0.33 -0.97,0.58 -1.58,0.75 -0.61,0.17 -1.28,0.25 -2.01,0.25 -0.24,0 -0.52,-0.02 -0.85,-0.06 -0.33,-0.04 -0.66,-0.1 -1,-0.17 -0.34,-0.08 -0.66,-0.16 -0.96,-0.27 -0.31,-0.1 -0.55,-0.21 -0.74,-0.33l0 -1.65zm22.77 1.16c-1.55,0.87 -3.2,1.31 -4.93,1.31 -1.1,0 -2.08,-0.19 -2.95,-0.56 -0.87,-0.37 -1.61,-0.9 -2.22,-1.57 -0.61,-0.67 -1.08,-1.47 -1.41,-2.4 -0.33,-0.93 -0.49,-1.95 -0.49,-3.07 0,-0.74 0.08,-1.44 0.24,-2.13 0.16,-0.68 0.39,-1.32 0.7,-1.91 0.31,-0.6 0.68,-1.14 1.12,-1.62 0.45,-0.49 0.95,-0.9 1.52,-1.25 0.57,-0.35 1.21,-0.62 1.89,-0.81 0.69,-0.19 1.43,-0.28 2.23,-0.28 1.5,0 2.83,0.26 4.01,0.8l0 1.55c-1.29,-0.72 -2.68,-1.07 -4.18,-1.07 -0.92,0 -1.75,0.17 -2.5,0.51 -0.74,0.33 -1.38,0.8 -1.9,1.39 -0.52,0.59 -0.93,1.29 -1.22,2.09 -0.29,0.81 -0.44,1.68 -0.44,2.62 -0.01,0.93 0.11,1.8 0.36,2.58 0.25,0.79 0.62,1.47 1.11,2.05 0.49,0.57 1.1,1.02 1.82,1.35 0.73,0.32 1.56,0.49 2.51,0.49 1.28,0 2.39,-0.27 3.33,-0.8l0 -4.61 -3.43 0 0 -1.27 4.83 0 0 6.65zm4.89 1.05l-1.4 0 0 -15.09 1.4 0 0 15.09zm-131.81 28.68l0 -15.09 7.36 0 0 1.29 -5.96 0 0 5.52 5.52 0 0 1.27 -5.52 0 0 5.74 6.3 0 0 1.27 -7.7 0zm15.97 -9.4c-0.32,-0.23 -0.72,-0.35 -1.22,-0.35 -0.36,0 -0.67,0.07 -0.95,0.21 -0.28,0.14 -0.51,0.32 -0.72,0.55 -0.21,0.23 -0.38,0.5 -0.53,0.8 -0.15,0.31 -0.26,0.62 -0.35,0.95 -0.09,0.33 -0.15,0.66 -0.19,1 -0.04,0.34 -0.06,0.66 -0.06,0.96l0 5.27 -1.34 0 0 -10.78 1.34 0 0 2.31 0.04 0c0.13,-0.39 0.28,-0.75 0.48,-1.06 0.19,-0.31 0.42,-0.58 0.67,-0.79 0.25,-0.22 0.53,-0.38 0.83,-0.49 0.3,-0.11 0.61,-0.17 0.94,-0.17 0.22,0 0.41,0.01 0.59,0.04 0.17,0.02 0.33,0.07 0.47,0.13l0 1.41zm2.63 -4.1c-0.26,0 -0.49,-0.09 -0.68,-0.27 -0.19,-0.18 -0.29,-0.42 -0.29,-0.7 0,-0.27 0.09,-0.5 0.29,-0.68 0.19,-0.18 0.41,-0.27 0.68,-0.27 0.13,0 0.26,0.02 0.38,0.07 0.12,0.05 0.22,0.11 0.31,0.19 0.09,0.09 0.16,0.19 0.21,0.3 0.05,0.11 0.08,0.24 0.08,0.39 0,0.13 -0.03,0.26 -0.08,0.38 -0.05,0.12 -0.12,0.22 -0.21,0.31 -0.09,0.09 -0.19,0.16 -0.31,0.21 -0.12,0.05 -0.25,0.08 -0.39,0.08zm-0.67 13.5l0 -10.78 1.36 0 0 10.78 -1.36 0zm11.99 -0.49c-0.8,0.49 -1.77,0.73 -2.91,0.75 -0.77,0.01 -1.47,-0.13 -2.09,-0.4 -0.62,-0.28 -1.14,-0.66 -1.58,-1.14 -0.43,-0.49 -0.77,-1.06 -1,-1.73 -0.23,-0.66 -0.35,-1.38 -0.35,-2.16 0,-0.81 0.12,-1.57 0.37,-2.28 0.24,-0.71 0.6,-1.33 1.07,-1.86 0.47,-0.53 1.05,-0.95 1.73,-1.26 0.68,-0.31 1.46,-0.46 2.34,-0.46 0.89,0 1.71,0.17 2.44,0.52l0 1.43c-0.79,-0.52 -1.64,-0.78 -2.55,-0.78 -0.64,0 -1.21,0.12 -1.71,0.36 -0.5,0.24 -0.92,0.58 -1.26,0.99 -0.34,0.42 -0.6,0.91 -0.78,1.47 -0.18,0.56 -0.27,1.15 -0.27,1.78 0,0.58 0.08,1.13 0.23,1.65 0.15,0.53 0.38,0.99 0.7,1.4 0.31,0.4 0.71,0.73 1.18,0.96 0.48,0.24 1.04,0.36 1.69,0.36 1.01,0 1.93,-0.3 2.74,-0.91l0 1.33zm8.93 0.49l-4.94 -5.25 -0.04 0 0 5.25 -1.36 0 0 -15.95 1.36 0 0 10.19 0.04 0 4.68 -5.02 1.75 0 -5.02 5.21 5.43 5.57 -1.9 0zm19.7 0l-1.66 -4.46 -6.47 0 -1.62 4.46 -1.56 0 5.75 -15.09 1.41 0 5.71 15.09 -1.56 0zm-4.6 -12.45c-0.05,-0.13 -0.1,-0.29 -0.16,-0.46 -0.05,-0.17 -0.1,-0.37 -0.13,-0.6l-0.04 0c-0.04,0.23 -0.09,0.43 -0.14,0.6 -0.05,0.18 -0.1,0.33 -0.15,0.46l-2.45 6.71 5.54 0 -2.47 -6.71zm15.58 12.45l0 -6.22c0,-2.44 -0.88,-3.66 -2.64,-3.66 -0.47,0 -0.9,0.09 -1.3,0.28 -0.4,0.19 -0.74,0.44 -1.03,0.77 -0.29,0.33 -0.52,0.72 -0.68,1.18 -0.16,0.45 -0.25,0.94 -0.25,1.47l0 6.18 -1.36 0 0 -10.78 1.36 0 0 1.87 0.04 0c0.8,-1.42 2,-2.13 3.6,-2.13 1.18,0 2.08,0.38 2.7,1.15 0.61,0.77 0.92,1.87 0.92,3.32l0 6.57 -1.36 0zm12.14 0l0 -1.89 -0.04 0c-0.36,0.68 -0.87,1.21 -1.53,1.58 -0.66,0.38 -1.42,0.56 -2.26,0.56 -0.68,0 -1.29,-0.13 -1.84,-0.37 -0.55,-0.25 -1.02,-0.61 -1.42,-1.08 -0.39,-0.47 -0.7,-1.04 -0.91,-1.71 -0.21,-0.67 -0.32,-1.42 -0.32,-2.26 0,-0.87 0.12,-1.67 0.35,-2.39 0.24,-0.72 0.57,-1.34 1,-1.85 0.43,-0.52 0.95,-0.92 1.56,-1.2 0.61,-0.28 1.28,-0.43 2.03,-0.43 1.55,0 2.67,0.62 3.34,1.86l0.04 0 0 -6.78 1.36 0 0 15.95 -1.36 0zm0 -6.51c0,-0.47 -0.08,-0.91 -0.24,-1.32 -0.16,-0.41 -0.39,-0.76 -0.67,-1.06 -0.29,-0.3 -0.63,-0.54 -1.04,-0.72 -0.4,-0.18 -0.85,-0.26 -1.33,-0.26 -0.54,0 -1.03,0.1 -1.48,0.32 -0.45,0.21 -0.84,0.51 -1.16,0.91 -0.32,0.4 -0.57,0.88 -0.75,1.45 -0.18,0.57 -0.27,1.21 -0.27,1.94 0,0.68 0.08,1.29 0.24,1.83 0.16,0.54 0.39,1 0.69,1.37 0.3,0.37 0.65,0.66 1.07,0.86 0.41,0.2 0.88,0.29 1.38,0.29 0.55,0 1.04,-0.1 1.48,-0.29 0.44,-0.2 0.81,-0.47 1.12,-0.81 0.31,-0.35 0.54,-0.75 0.71,-1.21 0.16,-0.46 0.25,-0.96 0.25,-1.49l0 -1.8zm10.18 -2.89c-0.32,-0.23 -0.72,-0.35 -1.22,-0.35 -0.36,0 -0.67,0.07 -0.95,0.21 -0.28,0.14 -0.51,0.32 -0.72,0.55 -0.21,0.23 -0.38,0.5 -0.53,0.8 -0.15,0.31 -0.26,0.62 -0.35,0.95 -0.09,0.33 -0.15,0.66 -0.19,1 -0.04,0.34 -0.06,0.66 -0.06,0.96l0 5.27 -1.34 0 0 -10.78 1.34 0 0 2.31 0.04 0c0.13,-0.39 0.28,-0.75 0.48,-1.06 0.19,-0.31 0.42,-0.58 0.67,-0.79 0.25,-0.22 0.53,-0.38 0.83,-0.49 0.3,-0.11 0.61,-0.17 0.94,-0.17 0.22,0 0.41,0.01 0.59,0.04 0.17,0.02 0.33,0.07 0.47,0.13l0 1.41zm8.17 9.4l0 -1.92 -0.04 0c-0.35,0.69 -0.83,1.23 -1.44,1.61 -0.61,0.38 -1.29,0.57 -2.06,0.57 -0.52,0 -0.99,-0.07 -1.41,-0.22 -0.42,-0.15 -0.77,-0.36 -1.06,-0.63 -0.29,-0.27 -0.52,-0.6 -0.68,-0.98 -0.16,-0.38 -0.24,-0.8 -0.24,-1.26 0,-0.98 0.3,-1.76 0.91,-2.34 0.6,-0.58 1.52,-0.96 2.74,-1.13l3.28 -0.47c0,-2.07 -0.81,-3.1 -2.42,-3.1 -1.26,0 -2.43,0.46 -3.51,1.38l0 -1.47c0.23,-0.16 0.48,-0.31 0.76,-0.44 0.29,-0.13 0.59,-0.24 0.91,-0.34 0.32,-0.09 0.64,-0.17 0.98,-0.22 0.34,-0.05 0.66,-0.08 0.98,-0.08 1.2,0 2.12,0.34 2.73,1.01 0.62,0.68 0.93,1.68 0.93,3.02l0 7.01 -1.36 0zm-2.78 -5.24c-0.49,0.07 -0.9,0.15 -1.25,0.26 -0.34,0.1 -0.63,0.25 -0.86,0.43 -0.23,0.18 -0.39,0.4 -0.5,0.66 -0.1,0.27 -0.16,0.59 -0.16,0.98 0,0.29 0.05,0.55 0.16,0.8 0.1,0.24 0.25,0.46 0.44,0.63 0.19,0.18 0.43,0.32 0.71,0.42 0.28,0.1 0.59,0.15 0.94,0.15 0.48,0 0.92,-0.09 1.32,-0.27 0.4,-0.18 0.75,-0.44 1.04,-0.76 0.29,-0.32 0.52,-0.71 0.69,-1.16 0.16,-0.45 0.25,-0.94 0.25,-1.47l0 -1.06 -2.78 0.39zm14.92 5.24l0 -1.89 -0.04 0c-0.36,0.68 -0.87,1.21 -1.53,1.58 -0.66,0.38 -1.42,0.56 -2.26,0.56 -0.68,0 -1.29,-0.13 -1.84,-0.37 -0.55,-0.25 -1.02,-0.61 -1.42,-1.08 -0.39,-0.47 -0.7,-1.04 -0.91,-1.71 -0.21,-0.67 -0.32,-1.42 -0.32,-2.26 0,-0.87 0.12,-1.67 0.35,-2.39 0.24,-0.72 0.57,-1.34 1,-1.85 0.43,-0.52 0.95,-0.92 1.56,-1.2 0.61,-0.28 1.28,-0.43 2.03,-0.43 1.55,0 2.67,0.62 3.34,1.86l0.04 0 0 -6.78 1.36 0 0 15.95 -1.36 0zm0 -6.51c0,-0.47 -0.08,-0.91 -0.24,-1.32 -0.16,-0.41 -0.39,-0.76 -0.67,-1.06 -0.29,-0.3 -0.63,-0.54 -1.04,-0.72 -0.4,-0.18 -0.85,-0.26 -1.33,-0.26 -0.54,0 -1.03,0.1 -1.48,0.32 -0.45,0.21 -0.84,0.51 -1.16,0.91 -0.32,0.4 -0.57,0.88 -0.75,1.45 -0.18,0.57 -0.27,1.21 -0.27,1.94 0,0.68 0.08,1.29 0.24,1.83 0.16,0.54 0.39,1 0.69,1.37 0.3,0.37 0.65,0.66 1.07,0.86 0.41,0.2 0.88,0.29 1.38,0.29 0.55,0 1.04,-0.1 1.48,-0.29 0.44,-0.2 0.81,-0.47 1.12,-0.81 0.31,-0.35 0.54,-0.75 0.71,-1.21 0.16,-0.46 0.25,-0.96 0.25,-1.49l0 -1.8zm5.46 1.36c0.01,0.66 0.09,1.25 0.26,1.78 0.17,0.53 0.41,0.97 0.73,1.34 0.32,0.37 0.7,0.65 1.15,0.84 0.45,0.19 0.96,0.29 1.53,0.29 1.21,0 2.36,-0.42 3.44,-1.28l0 1.33c-1.03,0.74 -2.28,1.11 -3.75,1.11 -0.72,0 -1.38,-0.13 -1.97,-0.38 -0.59,-0.25 -1.09,-0.62 -1.51,-1.1 -0.41,-0.48 -0.73,-1.07 -0.96,-1.78 -0.23,-0.7 -0.34,-1.51 -0.34,-2.4 0,-0.81 0.12,-1.56 0.37,-2.25 0.25,-0.69 0.59,-1.28 1.02,-1.79 0.44,-0.5 0.95,-0.89 1.55,-1.18 0.6,-0.28 1.25,-0.43 1.95,-0.43 0.7,0 1.31,0.12 1.84,0.36 0.53,0.24 0.98,0.59 1.34,1.04 0.36,0.45 0.64,1 0.83,1.64 0.19,0.65 0.28,1.37 0.28,2.17l0 0.68 -7.78 0zm6.4 -1.18c-0.02,-1.12 -0.29,-1.99 -0.8,-2.61 -0.51,-0.62 -1.23,-0.93 -2.14,-0.93 -0.46,0 -0.88,0.08 -1.27,0.24 -0.39,0.16 -0.73,0.39 -1.03,0.7 -0.29,0.31 -0.54,0.68 -0.73,1.12 -0.19,0.44 -0.33,0.93 -0.41,1.48l6.38 0z"/>
   <polygon class="fil2" style="mask:url(#id0)" points="-0,85.49 296.72,85.49 296.72,88.52 -0,88.52 "/>
   <path class="fil3" d="M52.71 74.95l-5.24 0 -1.52 -4.76 -7.6 0 -1.51 4.76 -5.22 0 7.78 -21.37 5.71 0 7.6 21.37zm-7.87 -8.45l-2.29 -7.18c-0.17,-0.54 -0.29,-1.18 -0.36,-1.92l-0.12 0c-0.05,0.63 -0.17,1.25 -0.37,1.86l-2.33 7.24 5.47 0zm10.53 8.45l0 -21.37 7.78 0c2.38,0 4.22,0.44 5.5,1.31 1.28,0.87 1.92,2.1 1.92,3.69 0,1.15 -0.39,2.16 -1.17,3.02 -0.78,0.86 -1.78,1.47 -2.99,1.8l0 0.06c1.52,0.19 2.74,0.75 3.65,1.68 0.91,0.94 1.36,2.07 1.36,3.41 0,1.96 -0.7,3.51 -2.1,4.66 -1.4,1.14 -3.32,1.72 -5.74,1.72l-8.21 0zm4.82 -17.82l0 5.07 2.12 0c0.99,0 1.78,-0.24 2.34,-0.72 0.58,-0.48 0.86,-1.14 0.86,-1.99 0,-1.57 -1.18,-2.35 -3.52,-2.35l-1.8 0zm0 8.64l0 5.64 2.61 0c1.11,0 1.98,-0.26 2.61,-0.78 0.63,-0.51 0.95,-1.22 0.95,-2.12 0,-0.85 -0.31,-1.52 -0.93,-2.01 -0.63,-0.49 -1.49,-0.73 -2.6,-0.73l-2.63 0zm13.77 8.36l0 -4.77c0.86,0.73 1.81,1.27 2.82,1.63 1.01,0.36 2.03,0.54 3.07,0.54 0.61,0 1.14,-0.06 1.59,-0.16 0.45,-0.11 0.83,-0.26 1.13,-0.46 0.31,-0.19 0.53,-0.42 0.68,-0.68 0.15,-0.26 0.22,-0.55 0.22,-0.86 0,-0.42 -0.12,-0.79 -0.36,-1.11 -0.24,-0.33 -0.56,-0.64 -0.98,-0.91 -0.41,-0.28 -0.9,-0.55 -1.47,-0.8 -0.56,-0.26 -1.18,-0.52 -1.83,-0.79 -1.67,-0.69 -2.91,-1.54 -3.73,-2.55 -0.82,-1 -1.23,-2.21 -1.23,-3.63 0,-1.11 0.22,-2.07 0.67,-2.87 0.45,-0.8 1.06,-1.46 1.83,-1.98 0.77,-0.51 1.66,-0.89 2.68,-1.14 1.01,-0.24 2.09,-0.37 3.22,-0.37 1.11,0 2.1,0.07 2.96,0.2 0.85,0.13 1.65,0.34 2.38,0.62l0 4.46c-0.36,-0.25 -0.75,-0.47 -1.17,-0.66 -0.42,-0.19 -0.86,-0.35 -1.31,-0.47 -0.44,-0.12 -0.89,-0.21 -1.33,-0.27 -0.44,-0.06 -0.86,-0.09 -1.26,-0.09 -0.55,0 -1.04,0.05 -1.49,0.15 -0.45,0.11 -0.82,0.25 -1.13,0.44 -0.31,0.19 -0.54,0.41 -0.72,0.68 -0.17,0.26 -0.25,0.56 -0.25,0.88 0,0.36 0.09,0.68 0.28,0.96 0.19,0.29 0.46,0.56 0.81,0.81 0.35,0.25 0.77,0.5 1.27,0.74 0.49,0.24 1.06,0.49 1.68,0.75 0.85,0.36 1.62,0.74 2.3,1.14 0.68,0.4 1.27,0.86 1.75,1.36 0.49,0.51 0.86,1.09 1.12,1.74 0.26,0.65 0.39,1.4 0.39,2.27 0,1.2 -0.22,2.19 -0.68,3.01 -0.45,0.81 -1.06,1.46 -1.84,1.96 -0.77,0.5 -1.67,0.86 -2.7,1.08 -1.03,0.22 -2.12,0.33 -3.26,0.33 -1.17,0 -2.28,-0.1 -3.34,-0.3 -1.06,-0.2 -1.98,-0.5 -2.75,-0.89zm27.12 1.19c-3.06,0 -5.55,-1 -7.48,-2.99 -1.93,-1.99 -2.89,-4.59 -2.89,-7.79 0,-3.38 0.98,-6.11 2.93,-8.19 1.96,-2.08 4.55,-3.13 7.78,-3.13 3.05,0 5.52,1 7.4,3 1.88,2 2.82,4.63 2.82,7.9 0,3.36 -0.98,6.07 -2.93,8.12 -1.95,2.05 -4.5,3.08 -7.63,3.08zm0.21 -17.95c-1.69,0 -3.03,0.63 -4.02,1.9 -0.99,1.27 -1.49,2.94 -1.49,5.02 0,2.12 0.5,3.79 1.49,5.03 0.99,1.23 2.29,1.85 3.9,1.85 1.66,0 2.98,-0.6 3.95,-1.8 0.97,-1.2 1.46,-2.86 1.46,-4.98 0,-2.22 -0.47,-3.94 -1.41,-5.17 -0.95,-1.23 -2.24,-1.85 -3.88,-1.85zm26.63 17.58l-12.73 0 0 -21.37 4.82 0 0 17.46 7.91 0 0 3.91zm19.68 -9.25c0,6.41 -2.99,9.62 -8.97,9.62 -5.8,0 -8.7,-3.13 -8.7,-9.4l0 -12.34 4.83 0 0 12.39c0,3.46 1.35,5.19 4.05,5.19 2.65,0 3.98,-1.67 3.98,-5.01l0 -12.57 4.81 0 0 12.11zm19.66 -8.2l-6.1 0 0 17.45 -4.83 0 0 -17.45 -6.06 0 0 -3.92 16.99 0 0 3.92zm10.77 17.82c-3.06,0 -5.55,-1 -7.48,-2.99 -1.93,-1.99 -2.89,-4.59 -2.89,-7.79 0,-3.38 0.98,-6.11 2.93,-8.19 1.96,-2.08 4.55,-3.13 7.78,-3.13 3.05,0 5.52,1 7.4,3 1.88,2 2.82,4.63 2.82,7.9 0,3.36 -0.98,6.07 -2.93,8.12 -1.95,2.05 -4.5,3.08 -7.63,3.08zm0.21 -17.95c-1.69,0 -3.03,0.63 -4.02,1.9 -0.99,1.27 -1.49,2.94 -1.49,5.02 0,2.12 0.5,3.79 1.49,5.03 0.99,1.23 2.29,1.85 3.9,1.85 1.66,0 2.98,-0.6 3.95,-1.8 0.97,-1.2 1.46,-2.86 1.46,-4.98 0,-2.22 -0.47,-3.94 -1.41,-5.17 -0.95,-1.23 -2.24,-1.85 -3.88,-1.85zm14.23 17.58l0 -21.36 5.83 0c0.88,0 1.68,0.12 2.39,0.36 0.71,0.24 1.32,0.57 1.82,1.01 0.5,0.43 0.88,0.95 1.15,1.56 0.27,0.61 0.4,1.27 0.4,2 0,0.62 -0.09,1.19 -0.25,1.73 -0.17,0.54 -0.41,1.02 -0.73,1.46 -0.32,0.44 -0.71,0.83 -1.17,1.15 -0.46,0.33 -0.99,0.58 -1.57,0.77l0 0.06c0.72,0.07 1.37,0.24 1.96,0.52 0.59,0.28 1.09,0.64 1.51,1.09 0.42,0.45 0.74,0.97 0.97,1.57 0.23,0.6 0.35,1.26 0.35,1.97 0,0.9 -0.16,1.73 -0.49,2.48 -0.33,0.75 -0.79,1.39 -1.38,1.94 -0.59,0.54 -1.3,0.96 -2.11,1.26 -0.81,0.3 -1.71,0.45 -2.7,0.45l-5.98 0zm1.98 -19.53l0 7.57 2.77 0c0.72,0 1.38,-0.1 1.96,-0.29 0.59,-0.19 1.09,-0.46 1.51,-0.81 0.42,-0.36 0.74,-0.79 0.96,-1.3 0.22,-0.5 0.34,-1.07 0.34,-1.71 0,-2.31 -1.44,-3.46 -4.32,-3.46l-3.22 0zm0 9.37l0 8.36 3.68 0c1.58,0 2.8,-0.37 3.65,-1.11 0.85,-0.74 1.28,-1.79 1.28,-3.15 0,-2.74 -1.87,-4.1 -5.59,-4.1l-3.01 0zm28.91 10.16l-2.35 -6.32 -9.16 0 -2.29 6.32 -2.21 0 8.13 -21.36 2 0 8.09 21.36 -2.2 0zm-6.51 -17.62c-0.07,-0.19 -0.14,-0.41 -0.22,-0.66 -0.08,-0.24 -0.14,-0.53 -0.19,-0.85l-0.06 0c-0.06,0.32 -0.13,0.61 -0.2,0.85 -0.08,0.25 -0.15,0.47 -0.22,0.66l-3.46 9.51 7.84 0 -3.49 -9.51zm26.71 17.62l-11.87 -17.14c-0.15,-0.22 -0.29,-0.44 -0.44,-0.67 -0.14,-0.23 -0.26,-0.45 -0.35,-0.67l-0.08 0c0.02,0.18 0.04,0.43 0.06,0.75 0.01,0.32 0.02,0.71 0.02,1.19l0 16.55 -1.98 0 0 -21.36 2.19 0 11.66 16.94c0.18,0.27 0.34,0.52 0.48,0.75 0.14,0.23 0.27,0.45 0.39,0.65l0.08 0c-0.04,-0.33 -0.07,-0.69 -0.09,-1.1 -0.01,-0.41 -0.02,-0.86 -0.02,-1.36l0 -15.88 2.01 0 0 21.36 -2.05 0zm18.77 0l-8.68 -9.99c-0.24,-0.29 -0.39,-0.49 -0.46,-0.61l-0.06 0 0 10.6 -1.98 0 0 -21.36 1.98 0 0 10.06 0.06 0c0.07,-0.11 0.14,-0.21 0.22,-0.32 0.08,-0.1 0.16,-0.2 0.25,-0.31l8.3 -9.43 2.51 0 -9.25 10.31 9.86 11.05 -2.77 0z"/>
  </g>
 </g>
</svg>
