<?xml version="1.0" encoding="UTF-8"?>
<!DOCTYPE svg PUBLIC "-//W3C//DTD SVG 1.1//EN" "http://www.w3.org/Graphics/SVG/1.1/DTD/svg11.dtd">
<!-- Creator: CorelDRAW -->
<svg xmlns="http://www.w3.org/2000/svg" xml:space="preserve" width="3.4028mm" height="2.7467mm" version="1.1" style="shape-rendering:geometricPrecision; text-rendering:geometricPrecision; image-rendering:optimizeQuality; fill-rule:evenodd; clip-rule:evenodd"
viewBox="0 0 7.59 6.13"
 xmlns:xlink="http://www.w3.org/1999/xlink"
 xmlns:xodm="http://www.corel.com/coreldraw/odm/2003">
 <defs>
  <style type="text/css">
   <![CDATA[
    .fil0 {fill:#FFCC00}
   ]]>
  </style>
 </defs>
 <g id="Camada_x0020_1">
  <metadata id="CorelCorpID_0Corel-Layer"/>
  <path class="fil0" d="M1.38 6.13c0.92,0 1.41,-0.54 1.41,-1.51 0,-0.74 -0.25,-1.22 -1.03,-1.91 -0.61,-0.54 -0.81,-0.85 -0.81,-1.29 0,-0.41 0.17,-0.57 0.47,-0.57 0.3,0 0.47,0.16 0.47,0.59l0 0.31 0.89 0 0 -0.25c0,-0.95 -0.45,-1.5 -1.36,-1.5 -0.91,0 -1.4,0.54 -1.4,1.48 0,0.68 0.26,1.17 1.04,1.86 0.61,0.54 0.8,0.85 0.8,1.34 0,0.44 -0.19,0.6 -0.49,0.6 -0.3,0 -0.49,-0.15 -0.49,-0.58l0 -0.41 -0.89 0 0 0.34c0,0.95 0.46,1.5 1.38,1.5zm3.28 0c0.92,0 1.4,-0.54 1.4,-1.5l0 -1.95 -1.35 0 0 0.85 0.47 0 0 1.17c0,0.43 -0.19,0.58 -0.49,0.58 -0.3,0 -0.49,-0.15 -0.49,-0.58l0 -3.26c0,-0.43 0.19,-0.59 0.49,-0.59 0.3,0 0.49,0.16 0.49,0.59l0 0.57 0.89 0 0 -0.51c0,-0.95 -0.48,-1.5 -1.4,-1.5 -0.92,0 -1.4,0.54 -1.4,1.5l0 3.13c0,0.95 0.48,1.5 1.4,1.5zm2 -0.09l0.94 0 0 -4.14 -0.94 -0.29 0 4.42zm0.94 -4.96l0 -1 -0.94 0 0 1 0.94 0z"/>
 </g>
</svg>
