<?xml version="1.0" encoding="UTF-8"?>
<!DOCTYPE svg PUBLIC "-//W3C//DTD SVG 1.1//EN" "http://www.w3.org/Graphics/SVG/1.1/DTD/svg11.dtd">
<!-- Creator: CorelDRAW -->
<svg xmlns="http://www.w3.org/2000/svg" xml:space="preserve" width="17.0793mm" height="13.7861mm" version="1.1" style="shape-rendering:geometricPrecision; text-rendering:geometricPrecision; image-rendering:optimizeQuality; fill-rule:evenodd; clip-rule:evenodd"
viewBox="0 0 1696.12 1369.08"
 xmlns:xlink="http://www.w3.org/1999/xlink"
 xmlns:xodm="http://www.corel.com/coreldraw/odm/2003">
 <defs>
  <style type="text/css">
   <![CDATA[
    .fil0 {fill:#29303A}
   ]]>
  </style>
 </defs>
 <g id="Camada_x0020_1">
  <metadata id="CorelCorpID_0Corel-Layer"/>
  <path class="fil0" d="M308.04 1369.08c205.36,0 315.63,-121.7 315.63,-338.47 0,-165.43 -55.14,-271.9 -230.06,-425.91 -136.91,-119.8 -180.66,-190.16 -180.66,-287.13 0,-91.27 38.05,-127.4 104.59,-127.4 66.55,0 104.59,36.13 104.59,131.2l0 68.45 197.74 0 0 -55.14c0,-212.97 -100.77,-334.67 -304.24,-334.67 -203.45,0 -311.84,121.7 -311.84,330.86 0,152.13 57.05,260.52 231.98,414.53 136.91,119.79 178.75,190.16 178.75,300.42 0,98.89 -41.84,133.11 -108.39,133.11 -66.55,0 -108.39,-34.22 -108.39,-129.29l0 -91.27 -197.74 0 0 76.05c0,212.97 102.69,334.67 308.04,334.67zm732.05 0c205.36,0 311.86,-121.7 311.86,-334.67l0 -435.43 -302.34 0 0 190.14 104.56 0 0 260.52c0,95.07 -41.82,129.29 -108.39,129.29 -66.54,0 -108.38,-34.22 -108.38,-129.29l0 -728.28c0,-95.07 41.84,-131.2 108.38,-131.2 66.57,0 108.39,36.13 108.39,131.2l0 127.4 197.77 0 0 -114.09c0,-212.97 -106.5,-334.67 -311.86,-334.67 -205.36,0 -311.83,121.7 -311.83,334.67l0 699.74c0,212.97 106.47,334.67 311.83,334.67zm446.85 -19.03l209.18 0 0 -923.75 -209.18 -64.36 0 988.11zm209.18 -1107.59l0 -223.44 -209.18 0 0 223.44 209.18 0z"/>
 </g>
</svg>
