<?xml version="1.0" encoding="UTF-8"?>
<!DOCTYPE svg PUBLIC "-//W3C//DTD SVG 1.1//EN" "http://www.w3.org/Graphics/SVG/1.1/DTD/svg11.dtd">
<!-- Creator: CorelDRAW -->
<svg xmlns="http://www.w3.org/2000/svg" xml:space="preserve" width="25.9386mm" height="20.9372mm" version="1.1" style="shape-rendering:geometricPrecision; text-rendering:geometricPrecision; image-rendering:optimizeQuality; fill-rule:evenodd; clip-rule:evenodd"
viewBox="0 0 2582.01 2084.16"
 xmlns:xlink="http://www.w3.org/1999/xlink"
 xmlns:xodm="http://www.corel.com/coreldraw/odm/2003">
 <defs>
  <style type="text/css">
   <![CDATA[
    .fil0 {fill:white}
   ]]>
  </style>
 </defs>
 <g id="Camada_x0020_1">
  <metadata id="CorelCorpID_0Corel-Layer"/>
  <g id="_3306450377200">
   <polygon class="fil0" points="2582.01,369.1 2582.01,28.95 2263.58,28.95 2263.58,369.1 "/>
   <polygon class="fil0" points="2263.58,2055.19 2582.01,2055.19 2582.01,648.96 2263.58,550.98 "/>
   <path class="fil0" d="M1583.34 2084.16c312.62,0 474.74,-185.27 474.74,-509.47l0 -662.86 -460.25 0 0 289.45 159.18 0 0 396.58c0,144.73 -63.66,196.82 -164.99,196.82 -101.3,0 -164.98,-52.09 -164.98,-196.82l0 -1108.66c0,-144.73 63.69,-199.72 164.98,-199.72 101.34,0 164.99,55 164.99,199.72l0 193.95 301.07 0 0 -173.67c0,-324.2 -162.13,-509.47 -474.74,-509.47 -312.63,0 -474.7,185.27 -474.7,509.47l0 1065.21c0,324.2 162.08,509.47 474.7,509.47z"/>
   <path class="fil0" d="M468.93 2084.16c312.62,0 480.49,-185.27 480.49,-515.27 0,-251.83 -83.93,-413.91 -350.21,-648.37 -208.41,-182.37 -275.03,-289.48 -275.03,-437.1 0,-138.95 57.91,-193.95 159.22,-193.95 101.31,0 159.22,55 159.22,199.72l0 104.21 301.03 0 0 -83.93c0,-324.2 -153.4,-509.47 -463.15,-509.47 -309.72,0 -474.72,185.27 -474.72,503.66 0,231.6 86.85,396.59 353.14,631.05 208.41,182.34 272.1,289.47 272.1,457.32 0,150.55 -63.69,202.64 -164.99,202.64 -101.31,0 -164.99,-52.09 -164.99,-196.82l0 -138.94 -301.03 0 0 115.77c0,324.2 156.32,509.47 468.93,509.47z"/>
  </g>
 </g>
</svg>
