<?xml version="1.0" encoding="UTF-8"?>
<!DOCTYPE svg PUBLIC "-//W3C//DTD SVG 1.1//EN" "http://www.w3.org/Graphics/SVG/1.1/DTD/svg11.dtd">
<!-- Creator: CorelDRAW -->
<svg xmlns="http://www.w3.org/2000/svg" xml:space="preserve" width="5.2139mm" height="4.2086mm" version="1.1" style="shape-rendering:geometricPrecision; text-rendering:geometricPrecision; image-rendering:optimizeQuality; fill-rule:evenodd; clip-rule:evenodd"
viewBox="0 0 26.6 21.47"
 xmlns:xlink="http://www.w3.org/1999/xlink"
 xmlns:xodm="http://www.corel.com/coreldraw/odm/2003">
 <defs>
  <style type="text/css">
   <![CDATA[
    .fil0 {fill:white}
   ]]>
  </style>
 </defs>
 <g id="Camada_x0020_1">
  <metadata id="CorelCorpID_0Corel-Layer"/>
  <path class="fil0" d="M4.83 21.47c3.22,0 4.95,-1.91 4.95,-5.31 0,-2.59 -0.86,-4.26 -3.61,-6.68 -2.15,-1.88 -2.83,-2.98 -2.83,-4.5 0,-1.43 0.6,-2 1.64,-2 1.04,0 1.64,0.57 1.64,2.06l0 1.07 3.1 0 0 -0.86c0,-3.34 -1.58,-5.25 -4.77,-5.25 -3.19,0 -4.89,1.91 -4.89,5.19 0,2.39 0.89,4.09 3.64,6.5 2.15,1.88 2.8,2.98 2.8,4.71 0,1.55 -0.66,2.09 -1.7,2.09 -1.04,0 -1.7,-0.54 -1.7,-2.03l0 -1.43 -3.1 0 0 1.19c0,3.34 1.61,5.25 4.83,5.25zm11.48 0c3.22,0 4.89,-1.91 4.89,-5.25l0 -6.83 -4.74 0 0 2.98 1.64 0 0 4.09c0,1.49 -0.66,2.03 -1.7,2.03 -1.04,0 -1.7,-0.54 -1.7,-2.03l0 -11.42c0,-1.49 0.66,-2.06 1.7,-2.06 1.04,0 1.7,0.57 1.7,2.06l0 2 3.1 0 0 -1.79c0,-3.34 -1.67,-5.25 -4.89,-5.25 -3.22,0 -4.89,1.91 -4.89,5.25l0 10.97c0,3.34 1.67,5.25 4.89,5.25zm7.01 -0.3l3.28 0 0 -14.49 -3.28 -1.01 0 15.5zm3.28 -17.37l0 -3.5 -3.28 0 0 3.5 3.28 0z"/>
 </g>
</svg>
